<svg width="21" height="21" viewBox="0 0 21 21" fill="none" xmlns="http://www.w3.org/2000/svg">
<path d="M3 0C3.4564 0 3.84956 0.307883 3.9656 0.739745L3.98871 0.850187L4.466 3.997L20 3.99683C20.5996 3.99683 21.0547 4.51717 20.9952 5.09669L20.9763 5.21324L18.9807 14.2159C18.8877 14.6356 18.5388 14.9443 18.1202 14.9928L18.0044 14.9995H4.96973C4.51333 14.9995 4.12017 14.6916 4.00413 14.2598L3.98101 14.1493L2.141 2H0V0H3ZM5 19C5 20.1046 5.89543 21 7 21C8.10457 21 9 20.1046 9 19C9 17.8954 8.10457 17 7 17C5.89543 17 5 17.8954 5 19ZM14 19C14 20.1046 14.8954 21 16 21C17.1046 21 18 20.1046 18 19C18 17.8954 17.1046 17 16 17C14.8954 17 14 17.8954 14 19ZM4.769 5.997L5.83 13H17.203L18.755 5.997H4.769Z" fill="#001018"/>
</svg>
