<svg width="14" height="14" viewBox="0 0 14 14" fill="none" xmlns="http://www.w3.org/2000/svg">
<path fill-rule="evenodd" clip-rule="evenodd" d="M0.333313 6.99998C0.333313 10.682 3.31798 13.6666 6.99998 13.6666C10.682 13.6666 13.6666 10.682 13.6666 6.99998C13.6666 3.31798 10.682 0.333313 6.99998 0.333313C3.31798 0.333313 0.333313 3.31798 0.333313 6.99998ZM12.3333 6.99998C12.3333 9.9455 9.9455 12.3333 6.99998 12.3333C4.05446 12.3333 1.66665 9.9455 1.66665 6.99998C1.66665 4.05446 4.05446 1.66665 6.99998 1.66665C9.9455 1.66665 12.3333 4.05446 12.3333 6.99998ZM7.66665 8.99998V10.3333H6.33331V8.99998H7.66665ZM7.66665 7.66665V3.66665H6.33331V7.66665H7.66665Z" fill="#E3262F"/>
</svg>
