<svg width="18" height="16" viewBox="0 0 18 16" fill="none" xmlns="http://www.w3.org/2000/svg">
<path fill-rule="evenodd" clip-rule="evenodd" d="M17.3337 5.5C17.3337 2.58333 15.282 0.5 12.7503 0.5C11.2003 0.5 9.83366 1.33333 9.00033 2.16667C8.16699 1.33333 6.80033 0.5 5.25033 0.5C2.75033 0.5 0.666992 2.58333 0.666992 5.5C0.666992 11.0007 6.22463 14.2784 8.60528 15.6825C8.74922 15.7674 8.88155 15.8454 9.00033 15.9167C9.11911 15.8454 9.25143 15.7674 9.39537 15.6825C11.776 14.2784 17.3337 11.0007 17.3337 5.5ZM11.7953 12.0858C11.1753 12.5792 10.5128 13.04 9.77866 13.5033C9.52949 13.66 9.28283 13.8108 9.00033 13.9792C8.71783 13.8108 8.47116 13.66 8.22199 13.5025C7.48783 13.04 6.82533 12.5792 6.20449 12.0858C3.72199 10.1108 2.33366 7.95333 2.33366 5.5C2.33366 3.54667 3.63366 2.16667 5.25033 2.16667C6.14699 2.16667 7.11699 2.64167 7.82199 3.345L9.00033 4.52333L10.1787 3.345C10.8837 2.64167 11.8537 2.16667 12.7503 2.16667C14.3862 2.16667 15.667 3.53333 15.667 5.5C15.667 7.9525 14.2795 10.1108 11.7953 12.0858Z" fill="#007DBC"/>
</svg>
