<svg width="20" height="20" viewBox="0 0 20 20" fill="none" xmlns="http://www.w3.org/2000/svg">
<path fill-rule="evenodd" clip-rule="evenodd" d="M0 10C0 15.523 4.477 20 10 20C15.523 20 20 15.523 20 10C20 4.477 15.523 0 10 0C4.477 0 0 4.477 0 10ZM18 10C18 14.4183 14.4183 18 10 18C5.58172 18 2 14.4183 2 10C2 5.58172 5.58172 2 10 2C14.4183 2 18 5.58172 18 10ZM11 13V15H9V13H11ZM11 12V11.355C12.6436 10.8651 13.6904 9.25662 13.4726 7.55541C13.2549 5.8542 11.8368 4.56119 10.1228 4.50102C8.40875 4.44085 6.90349 5.63124 6.567 7.313L8.529 7.706C8.68387 6.93117 9.41325 6.40935 10.1966 6.51295C10.9799 6.61655 11.5486 7.31006 11.4967 8.09851C11.4448 8.88695 10.7902 9.49995 10 9.5C9.44771 9.5 9 9.94771 9 10.5V12H11Z" fill="#001018"/>
</svg>
