<svg width="28" height="28" viewBox="0 0 28 28" fill="none" xmlns="http://www.w3.org/2000/svg">
<path fill-rule="evenodd" clip-rule="evenodd" d="M27.7523 25.8654L22.0417 20.156C23.7446 18.0317 24.6709 15.3894 24.667 12.6667C24.667 6.04269 19.291 0.666687 12.667 0.666687C6.04299 0.666687 0.666992 6.04269 0.666992 12.6667C0.666992 19.2907 6.04299 24.6667 12.667 24.6667C15.3897 24.6706 18.032 23.7443 20.1563 22.0414L25.8657 27.752L27.7523 25.8654ZM22.0003 12.6667C22.0041 15.0939 21.0591 17.4265 19.367 19.1667L19.167 19.3667C17.4268 21.0588 15.0942 22.0038 12.667 22C7.50966 22 3.33366 17.8227 3.33366 12.6667C3.33366 7.50935 7.50966 3.33335 12.667 3.33335C17.823 3.33335 22.0003 7.50935 22.0003 12.6667Z" fill="white"/>
</svg>
