<svg width="14" height="12" viewBox="0 0 14 12" fill="none" xmlns="http://www.w3.org/2000/svg">
<path d="M12.9936 6.665V11.3305C12.9936 11.5073 12.9234 11.6768 12.7984 11.8018C12.6734 11.9268 12.5038 11.997 12.3271 11.997H1.66308C1.48631 11.997 1.31678 11.9268 1.19179 11.8018C1.0668 11.6768 0.996578 11.5073 0.996578 11.3305V6.665H0.330078V5.332L0.996578 1.9995H12.9936L13.6601 5.332V6.665H12.9936ZM2.32958 6.665V10.664H11.6606V6.665H2.32958ZM1.68974 5.332H12.3004L11.9005 3.3325H2.08964L1.68974 5.332ZM2.99608 7.3315H8.32808V9.331H2.99608V7.3315ZM0.996578 0H12.9936V1.333H0.996578V0Z" fill="#687787"/>
</svg>
